<svg width="230" height="29" viewBox="0 0 230 29" fill="none" xmlns="http://www.w3.org/2000/svg">
<g clip-path="url(#clip0_9202_41)">
<path d="M20.6404 14.47C20.6404 20.3216 17.9674 23.2474 12.6215 23.2474H6.09262V6.42404H12.757C15.6286 6.42404 17.6604 7.11937 18.8524 8.51003C20.0444 9.88263 20.6404 11.8693 20.6404 14.47ZM12.5402 19.0213C13.4613 19.0213 14.0573 18.7052 14.3282 18.0731C14.5991 17.441 14.7346 16.3935 14.7346 14.9305C14.7346 13.4496 14.5811 12.4021 14.274 11.788C13.9851 11.1559 13.371 10.8398 12.4319 10.8398H11.863V19.0213H12.5402ZM33.4986 13.7656L33.336 19.1838C33.336 19.4366 33.4263 19.6082 33.6069 19.6985C33.8056 19.7708 34.1487 19.8069 34.6364 19.8069L34.1216 23.41C33.038 23.4822 32.3066 23.5183 31.9273 23.5183C30.6089 23.5183 29.6517 23.1661 29.0557 22.4618H28.866C27.9991 23.1661 26.9065 23.5183 25.588 23.5183C24.2877 23.5183 23.2944 23.1752 22.6081 22.4889C21.9398 21.7845 21.6057 20.8183 21.6057 19.5902C21.6057 18.0731 22.1114 17.0165 23.1228 16.4205C24.1522 15.8245 25.7777 15.4453 27.9991 15.2827V14.7951C27.9991 14.47 27.8275 14.3075 27.4844 14.3075C26.5633 14.3075 24.983 14.5874 22.7435 15.1473L21.9037 10.8669C24.4864 10.2529 26.7078 9.94584 28.568 9.94584C30.4283 9.94584 31.7106 10.2529 32.4149 10.8669C33.1373 11.481 33.4986 12.4472 33.4986 13.7656ZM27.376 20.0236C27.8998 20.0236 28.1617 19.7527 28.1617 19.2109V18.1814C27.2225 18.3079 26.7529 18.6691 26.7529 19.2651C26.7529 19.7708 26.9606 20.0236 27.376 20.0236ZM51.7313 9.94584C54.2236 9.94584 55.4698 11.174 55.4698 13.6302V23.2474H49.7537V14.8493C49.7537 14.5603 49.6453 14.4158 49.4286 14.4158C49.1396 14.4158 48.7784 14.5061 48.3449 14.6867V23.2474H42.6288V14.8493C42.6288 14.5603 42.5114 14.4158 42.2766 14.4158C41.9515 14.4158 41.5903 14.5061 41.193 14.6867V23.2474H35.5581V10.2709H40.6782L40.8408 11.1107C42.0508 10.3341 43.3602 9.94584 44.769 9.94584C46.1777 9.94584 47.1891 10.3793 47.8031 11.2462C49.0312 10.3793 50.3406 9.94584 51.7313 9.94584ZM66.0873 9.94584C68.6158 9.94584 69.88 11.174 69.88 13.6302V23.2474H64.1639V14.8493C64.1639 14.5603 64.0103 14.4158 63.7033 14.4158C63.4143 14.4158 63.0892 14.5061 62.728 14.6867V23.2474H57.0932V10.2709H62.2133L62.3759 11.1107C63.5137 10.3341 64.7508 9.94584 66.0873 9.94584ZM79.2054 19.1025C79.5305 19.1025 79.9639 19.0483 80.5057 18.94V17.3145H79.1512V13.576H85.5446V23.2474H81.4539L81.0476 22.3805H80.9392C80 23.1391 78.8893 23.5183 77.607 23.5183C73.3809 23.5183 71.2678 20.6648 71.2678 14.9576C71.2678 12.1041 71.8367 9.92778 72.9745 8.42876C74.1304 6.91167 76.0719 6.15313 78.799 6.15313C80.8218 6.15313 82.7362 6.43307 84.5423 6.99294L83.6483 12.086C81.6255 11.5261 80.1716 11.2462 79.2866 11.2462C78.4197 11.2462 77.8418 11.5352 77.5528 12.1131C77.2819 12.691 77.1465 13.6753 77.1465 15.066C77.1465 16.4567 77.2729 17.4771 77.5257 18.1273C77.7967 18.7774 78.3565 19.1025 79.2054 19.1025ZM87.1375 16.7185C87.1375 14.3345 87.6612 12.6098 88.7087 11.5442C89.7743 10.4786 91.4269 9.94584 93.6664 9.94584C95.9239 9.94584 97.5674 10.4696 98.5969 11.5171C99.6263 12.5646 100.141 14.2894 100.141 16.6914C100.141 19.0754 99.6354 20.8092 98.624 21.8929C97.6306 22.9765 95.9871 23.5183 93.6935 23.5183C91.4178 23.5183 89.7563 22.9765 88.7087 21.8929C87.6612 20.8092 87.1375 19.0845 87.1375 16.7185ZM94.3707 14.4158C94.2804 14.0907 94.0456 13.9282 93.6664 13.9282C93.2871 13.9282 93.0433 14.0907 92.9349 14.4158C92.8446 14.7229 92.7995 15.3911 92.7995 16.4205V17.0707C92.7995 18.2266 92.8446 18.9761 92.9349 19.3193C93.0433 19.6443 93.2871 19.8069 93.6664 19.8069C94.0456 19.8069 94.2804 19.6443 94.3707 19.3193C94.4791 18.9761 94.5333 18.2717 94.5333 17.2062V16.4476C94.5333 15.4001 94.4791 14.7229 94.3707 14.4158ZM100.947 16.7185C100.947 14.3345 101.471 12.6098 102.519 11.5442C103.584 10.4786 105.237 9.94584 107.476 9.94584C109.734 9.94584 111.377 10.4696 112.407 11.5171C113.436 12.5646 113.951 14.2894 113.951 16.6914C113.951 19.0754 113.445 20.8092 112.434 21.8929C111.441 22.9765 109.797 23.5183 107.503 23.5183C105.228 23.5183 103.566 22.9765 102.519 21.8929C101.471 20.8092 100.947 19.0845 100.947 16.7185ZM108.181 14.4158C108.09 14.0907 107.856 13.9282 107.476 13.9282C107.097 13.9282 106.853 14.0907 106.745 14.4158C106.655 14.7229 106.609 15.3911 106.609 16.4205V17.0707C106.609 18.2266 106.655 18.9761 106.745 19.3193C106.853 19.6443 107.097 19.8069 107.476 19.8069C107.856 19.8069 108.09 19.6443 108.181 19.3193C108.289 18.9761 108.343 18.2717 108.343 17.2062V16.4476C108.343 15.4001 108.289 14.7229 108.181 14.4158ZM125.919 23.5183C124.51 23.5183 123.544 23.1661 123.02 22.4618H122.912C122.081 23.1661 121.097 23.5183 119.959 23.5183C118.081 23.5183 116.744 22.9223 115.949 21.7303C115.155 20.5383 114.757 18.8497 114.757 16.6644C114.757 14.479 115.191 12.8175 116.058 11.6797C116.943 10.5238 118.207 9.94584 119.85 9.94584C120.79 9.94584 121.548 10.0903 122.126 10.3793V5.88222H127.571V19.1838C127.571 19.4186 127.653 19.5811 127.815 19.6714C127.996 19.7617 128.303 19.8069 128.736 19.8069L128.249 23.41C127.309 23.4822 126.533 23.5183 125.919 23.5183ZM121.259 14.0636C120.898 14.0636 120.663 14.2713 120.555 14.6867C120.465 15.1021 120.419 15.8245 120.419 16.854C120.419 17.8834 120.465 18.6059 120.555 19.0213C120.645 19.4186 120.871 19.6173 121.232 19.6173C121.611 19.6173 121.909 19.5811 122.126 19.5089V14.2533C121.819 14.1269 121.53 14.0636 121.259 14.0636ZM129.331 11.8151C129.331 10.0271 129.873 8.63645 130.957 7.64312C132.04 6.64979 133.539 6.15313 135.454 6.15313C137.386 6.15313 139.373 6.33374 141.414 6.69495L140.791 11.4629C138.533 11.0114 137.052 10.7857 136.348 10.7857C135.644 10.7857 135.291 11.0024 135.291 11.4358C135.291 11.5984 135.346 11.7158 135.454 11.788C135.562 11.8422 135.644 11.8873 135.698 11.9235C135.752 11.9596 135.851 12.0047 135.996 12.0589C136.158 12.1131 136.285 12.1673 136.375 12.2215C136.483 12.2576 136.808 12.393 137.35 12.6278C137.91 12.8446 138.326 13.0252 138.596 13.1696C138.885 13.2961 139.274 13.5128 139.761 13.8198C141.17 14.7409 141.874 16.0955 141.874 17.8834C141.874 19.6714 141.342 21.0621 140.276 22.0554C139.211 23.0307 137.675 23.5183 135.671 23.5183C133.684 23.5183 131.733 23.2745 129.819 22.7869L130.198 18.2085C132.618 18.8226 134.253 19.1296 135.102 19.1296C135.662 19.1296 135.942 18.931 135.942 18.5336C135.942 18.353 135.869 18.2085 135.725 18.1002C135.598 17.9918 135.4 17.8744 135.129 17.748C134.876 17.6216 134.497 17.459 133.991 17.2604C133.485 17.0436 133.061 16.863 132.718 16.7185C132.375 16.556 131.968 16.3122 131.499 15.9871C130.054 14.9938 129.331 13.6031 129.331 11.8151ZM148.793 23.2474H143.158V10.5418H148.793V23.2474ZM143.05 7.80567C143.05 6.27052 144.016 5.50295 145.949 5.50295C147.881 5.50295 148.848 6.27052 148.848 7.80567C148.848 8.60033 148.604 9.16924 148.116 9.51239C147.647 9.85554 146.924 10.0271 145.949 10.0271C144.974 10.0271 144.242 9.86457 143.754 9.53948C143.285 9.19633 143.05 8.61839 143.05 7.80567ZM155.303 23.5183C153.894 23.5183 152.855 23.2565 152.187 22.7327C151.537 22.1909 151.212 21.2698 151.212 19.9694V14.0907H149.776V10.4335H151.483L151.835 8.02239H156.847V10.4335H159.312V14.0907H156.82V19.1025C156.82 19.3373 156.928 19.4547 157.145 19.4547C157.163 19.4547 157.876 19.4186 159.285 19.3463L159.122 23.2474C157.316 23.428 156.043 23.5183 155.303 23.5183ZM166.659 14.3075C166.28 14.3075 166.018 14.4249 165.874 14.6596C165.729 14.8944 165.657 15.2556 165.657 15.7433H167.608V15.3098C167.608 14.6416 167.291 14.3075 166.659 14.3075ZM160.076 16.7185C160.076 14.5693 160.636 12.9078 161.756 11.7338C162.894 10.5418 164.555 9.94584 166.741 9.94584C168.944 9.94584 170.497 10.3974 171.4 11.3004C172.321 12.2034 172.782 13.4947 172.782 15.1744C172.782 15.8426 172.71 16.854 172.565 18.2085H165.765C165.838 19.1838 166.434 19.6714 167.553 19.6714C168.077 19.6714 169.45 19.4818 171.671 19.1025L172.132 22.7598C170.217 23.2655 168.429 23.5183 166.768 23.5183C164.6 23.5183 162.939 22.9223 161.783 21.7303C160.645 20.5383 160.076 18.8677 160.076 16.7185ZM177.197 23.5183C176.222 23.5183 175.535 23.3468 175.138 23.0036C174.741 22.6424 174.542 22.0915 174.542 21.3511C174.542 20.6106 174.732 20.0688 175.111 19.7256C175.508 19.3644 176.204 19.1838 177.197 19.1838C178.19 19.1838 178.877 19.3644 179.256 19.7256C179.635 20.0688 179.825 20.6106 179.825 21.3511C179.825 22.0915 179.626 22.6424 179.229 23.0036C178.85 23.3468 178.172 23.5183 177.197 23.5183ZM188.386 14.1991C187.898 14.1991 187.573 14.4158 187.411 14.8493C187.266 15.2827 187.194 15.951 187.194 16.854C187.194 17.757 187.266 18.4162 187.411 18.8316C187.555 19.229 187.898 19.4276 188.44 19.4276C188.982 19.4276 189.84 19.3102 191.014 19.0754L191.61 22.8411C190.02 23.2926 188.684 23.5183 187.6 23.5183C185.596 23.5183 184.078 22.9404 183.049 21.7845C182.038 20.6286 181.532 19.0122 181.532 16.9353C181.532 14.8583 182.056 13.1787 183.103 11.8964C184.151 10.596 185.677 9.94584 187.682 9.94584C189.144 9.94584 190.526 10.1897 191.826 10.6773L191.258 14.9576C189.849 14.4519 188.892 14.1991 188.386 14.1991ZM192.3 16.7185C192.3 14.3345 192.823 12.6098 193.871 11.5442C194.936 10.4786 196.589 9.94584 198.828 9.94584C201.086 9.94584 202.729 10.4696 203.759 11.5171C204.788 12.5646 205.303 14.2894 205.303 16.6914C205.303 19.0754 204.797 20.8092 203.786 21.8929C202.793 22.9765 201.149 23.5183 198.855 23.5183C196.58 23.5183 194.918 22.9765 193.871 21.8929C192.823 20.8092 192.3 19.0845 192.3 16.7185ZM199.533 14.4158C199.442 14.0907 199.208 13.9282 198.828 13.9282C198.449 13.9282 198.205 14.0907 198.097 14.4158C198.007 14.7229 197.961 15.3911 197.961 16.4205V17.0707C197.961 18.2266 198.007 18.9761 198.097 19.3193C198.205 19.6443 198.449 19.8069 198.828 19.8069C199.208 19.8069 199.442 19.6443 199.533 19.3193C199.641 18.9761 199.695 18.2717 199.695 17.2062V16.4476C199.695 15.4001 199.641 14.7229 199.533 14.4158ZM222.689 9.94584C225.181 9.94584 226.428 11.174 226.428 13.6302V23.2474H220.711V14.8493C220.711 14.5603 220.603 14.4158 220.386 14.4158C220.097 14.4158 219.736 14.5061 219.303 14.6867V23.2474H213.587V14.8493C213.587 14.5603 213.469 14.4158 213.234 14.4158C212.909 14.4158 212.548 14.5061 212.151 14.6867V23.2474H206.516V10.2709H211.636L211.799 11.1107C213.009 10.3341 214.318 9.94584 215.727 9.94584C217.135 9.94584 218.147 10.3793 218.761 11.2462C219.989 10.3793 221.298 9.94584 222.689 9.94584Z" fill="white"/>
</g>
<defs>
<clipPath id="clip0_9202_41">
<rect width="229" height="28" fill="white" transform="translate(0.335518 0.802979)"/>
</clipPath>
</defs>
</svg>
